<svg width="64" height="64" viewBox="0 0 64 64" fill="none" xmlns="http://www.w3.org/2000/svg">
<circle cx="32" cy="32" r="32" fill="#FFF6E8"/>
<path fill-rule="evenodd" clip-rule="evenodd" d="M42.4134 22.5613L45.0852 27.0883C46.5025 29.4893 48.0874 32.1728 48.7666 33.3183C49.1254 33.9048 49.2958 34.5872 49.2547 35.2736C49.0223 39.492 45.6089 42.836 41.3862 42.9814C41.3579 42.9824 41.3296 42.9824 41.3013 42.9815C37.0769 42.8399 33.6602 39.4959 33.4271 35.2763C33.3829 34.5863 33.5515 33.8994 33.9102 33.3084L40.2606 22.5606C40.4856 22.1798 40.895 21.9463 41.3372 21.9465C41.7794 21.9466 42.1887 22.1804 42.4134 22.5613ZM41.3361 25.6549L36.0489 34.6031C35.9545 34.7577 35.9101 34.9378 35.9221 35.1186L35.9231 35.1335C36.0817 38.0485 38.4304 40.3622 41.3427 40.4813C44.2532 40.3596 46.5996 38.0467 46.7586 35.1333L46.7591 35.1252C46.7699 34.9479 46.7257 34.7716 46.6324 34.6205L46.6209 34.6017C45.943 33.4584 44.3526 30.7652 42.9323 28.3592L41.3361 25.6549Z" fill="#FBAB34"/>
<path fill-rule="evenodd" clip-rule="evenodd" d="M33.4825 34.534C33.4825 33.8436 34.0421 33.284 34.7325 33.284H47.9428C48.6331 33.284 49.1928 33.8436 49.1928 34.534C49.1928 35.2243 48.6331 35.784 47.9428 35.784H34.7325C34.0421 35.784 33.4825 35.2243 33.4825 34.534Z" fill="#FBAB34"/>
<path fill-rule="evenodd" clip-rule="evenodd" d="M22.6685 27.4159C23.1108 27.416 23.5201 27.6498 23.7448 28.0307L30.0938 38.7916C30.4502 39.3802 30.6175 40.0639 30.5732 40.7506C30.3418 44.9682 26.9283 48.3121 22.7059 48.4557C22.6779 48.4567 22.6499 48.4567 22.6219 48.4558C18.3957 48.3152 14.9771 44.9696 14.7453 40.7474L14.7456 40.7528C14.7046 40.059 14.879 39.3696 15.2447 38.779L21.5919 28.0303C21.8168 27.6495 22.2262 27.4158 22.6685 27.4159ZM22.6678 31.125L17.3899 40.0628L17.3727 40.0911C17.2765 40.2446 17.2306 40.4242 17.2413 40.6051L17.2416 40.6104C17.4016 43.525 19.751 45.8374 22.663 45.9556C25.5735 45.8353 27.92 43.5218 28.0772 40.6084L28.0781 40.5919C28.0901 40.4139 28.0467 40.2365 27.9539 40.0841L27.9446 40.0689L22.6678 31.125Z" fill="#FBAB34"/>
<path fill-rule="evenodd" clip-rule="evenodd" d="M14.8075 40.0034C14.8075 39.3131 15.3671 38.7534 16.0575 38.7534H29.2678C29.9581 38.7534 30.5178 39.3131 30.5178 40.0034C30.5178 40.6938 29.9581 41.2534 29.2678 41.2534H16.0575C15.3671 41.2534 14.8075 40.6938 14.8075 40.0034Z" fill="#FBAB34"/>
<path fill-rule="evenodd" clip-rule="evenodd" d="M42.5364 22.8451C42.7305 23.5076 42.3507 24.202 41.6882 24.3961L23.0148 29.8655C22.3523 30.0596 21.6579 29.6798 21.4638 29.0173C21.2698 28.3548 21.6495 27.6604 22.3121 27.4663L40.9854 21.9969C41.648 21.8028 42.3424 22.1826 42.5364 22.8451Z" fill="#FBAB34"/>
<path fill-rule="evenodd" clip-rule="evenodd" d="M30.6668 18.7451C31.3571 18.7451 31.9168 19.3048 31.9168 19.9951V26.3226C31.9168 27.0129 31.3571 27.5726 30.6668 27.5726C29.9764 27.5726 29.4168 27.0129 29.4168 26.3226V19.9951C29.4168 19.3048 29.9764 18.7451 30.6668 18.7451Z" fill="#FBAB34"/>
</svg>
